<svg xmlns="http://www.w3.org/2000/svg" version="1.1" xmlns:xlink="http://www.w3.org/1999/xlink" xmlns:svgjs="http://svgjs.dev/svgjs" width="1440" height="800" preserveAspectRatio="none" viewBox="0 0 1440 800">
    <g mask="url(&quot;#SvgjsMask4438&quot;)" fill="none">
        <rect width="1440" height="800" x="0" y="0" fill="url(&quot;#SvgjsLinearGradient4439&quot;)"></rect>
        <path d="M1416.353,977.865C1487.185,977.352,1565.482,975.12,1604.782,916.188C1647.507,852.121,1642.983,765.362,1601.206,700.674C1562.449,640.662,1487.69,620.606,1416.353,624.426C1352.079,627.868,1298.189,664.974,1262.883,718.793C1222.893,779.752,1185.983,856.226,1223.141,918.951C1259.922,981.04,1344.189,978.387,1416.353,977.865" fill="rgba(171, 187, 198, 0.4)" class="triangle-float2"></path>
        <path d="M574.214,214.515C631.727,216.115,695.627,207.921,725.236,158.59C755.436,108.274,735.504,46.035,705.667,-4.497C676.45,-53.978,631.668,-98.214,574.214,-97.177C518.06,-96.164,477.928,-49.035,450.729,0.103C424.589,47.329,410.142,103.796,437.081,150.571C464.059,197.415,520.178,213.011,574.214,214.515" fill="rgba(171, 187, 198, 0.4)" class="triangle-float2"></path>
        <path d="M863.102,1012.128C928.705,1015.89,986.545,968.896,1016.264,910.29C1043.414,856.75,1028.36,795.75,999.527,743.097C969.184,687.685,926.242,632.734,863.102,630.591C797.173,628.353,737.976,673.689,709.632,733.256C684.539,785.992,709.459,843.145,737.617,894.311C767.266,948.186,801.708,1008.607,863.102,1012.128" fill="rgba(171, 187, 198, 0.4)" class="triangle-float2"></path>
        <path d="M473.461,789.076C513.5,788.479,542.243,753.585,559.79,717.591C575.046,686.297,571.704,651.183,555.778,620.224C538.071,585.802,512.168,550.194,473.461,549.771C434.298,549.343,406.401,583.834,387.971,618.392C370.825,650.543,366.234,687.657,382.552,720.236C400.797,756.662,432.726,789.684,473.461,789.076" fill="rgba(171, 187, 198, 0.4)" class="triangle-float3"></path>
        <path d="M483.116,689.498C540.528,688.745,599.665,670.088,628.134,620.226C656.412,570.697,643.061,509.994,613.423,461.267C585.087,414.68,537.467,386.191,483.116,381.802C418.578,376.59,344.797,381.925,310.43,436.8C274.688,493.87,293.364,568.521,331.357,624.118C364.666,672.86,424.085,690.272,483.116,689.498" fill="rgba(171, 187, 198, 0.4)" class="triangle-float1"></path>
        <path d="M775.535,297.893C818.511,296.316,856.211,270.864,877.086,233.265C897.339,196.787,894.291,154.108,876.254,116.485C854.866,71.873,825.002,22.275,775.535,21.445C725.298,20.602,692.133,68.513,668.786,113.003C647.452,153.656,637.248,201.461,660.204,241.221C683.159,280.98,729.656,299.576,775.535,297.893" fill="rgba(171, 187, 198, 0.4)" class="triangle-float3"></path>
        <path d="M783.735,964.514C838.155,967.589,893.061,948.508,923.47,903.272C957.643,852.435,970.899,785.263,939.644,732.582C908.863,680.701,843.925,663.712,783.735,667.75C730.594,671.315,684.831,704.056,660.288,751.324C637.596,795.028,644.238,846.273,668.914,888.888C693.528,931.396,734.693,961.743,783.735,964.514" fill="rgba(171, 187, 198, 0.4)" class="triangle-float2"></path>
        <path d="M208.719,779.305C255.089,778.965,286.093,737.164,308.916,696.799C331.265,657.272,348.636,610.596,326.539,570.927C304.006,530.477,254.989,515.186,208.719,516.928C165.619,518.551,126.593,541.732,105.328,579.257C84.362,616.255,86.421,660.507,105.946,698.286C127.412,739.821,161.966,779.648,208.719,779.305" fill="rgba(171, 187, 198, 0.4)" class="triangle-float3"></path>
        <path d="M919.855,524.795C969.535,525.985,1021.806,510.084,1046.307,466.85C1070.551,424.069,1056.78,371.502,1030.15,330.164C1005.893,292.51,964.63,271.753,919.855,270.557C872.616,269.295,823.492,283.658,798.854,323.983C773.311,365.789,778.191,419.072,803.476,461.035C827.944,501.642,872.46,523.66,919.855,524.795" fill="rgba(171, 187, 198, 0.4)" class="triangle-float1"></path>
        <path d="M558.166,656.797C614.658,661.418,673.111,632.449,697.762,581.409C720.326,534.69,692.227,483.114,662.632,440.499C638.071,405.133,601.224,380.446,558.166,380.399C515.026,380.352,474.943,402.951,453.304,440.272C431.596,477.711,434.354,522.456,453.217,561.406C475.302,607.009,507.666,652.666,558.166,656.797" fill="rgba(171, 187, 198, 0.4)" class="triangle-float3"></path>
        <path d="M334.404,418.811C387.969,419.161,445.133,409.163,473.968,364.02C504.679,315.94,500.278,253.549,471.39,204.353C442.872,155.788,390.721,125.823,334.404,126.345C278.968,126.859,229.51,158.867,201.751,206.855C173.95,254.915,168.505,315.153,197.96,362.218C225.957,406.952,281.632,418.466,334.404,418.811" fill="rgba(171, 187, 198, 0.4)" class="triangle-float2"></path>
        <path d="M996.193,831.284C1044.396,830.599,1094.821,815.648,1118.097,773.432C1140.785,732.282,1123.311,683.918,1099.911,643.169C1076.386,602.202,1043.425,560.227,996.193,561.148C949.92,562.051,922.871,607.28,899.255,647.083C874.904,688.126,845.908,734.754,868.133,776.986C891.276,820.962,946.504,831.991,996.193,831.284" fill="rgba(171, 187, 198, 0.4)" class="triangle-float1"></path>
    </g>
    <defs>
        <mask id="SvgjsMask4438">
            <rect width="1440" height="800" fill="#ffffff"></rect>
        </mask>
        <linearGradient x1="88.89%" y1="120%" x2="11.11%" y2="-20%" gradientUnits="userSpaceOnUse" id="SvgjsLinearGradient4439">
            <stop stop-color="rgba(234, 197, 178, 1)" offset="0.19"></stop>
            <stop stop-color="rgba(207, 207, 207, 1)" offset="0.5"></stop>
            <stop stop-color="rgba(192, 193, 191, 1)" offset="0.66"></stop>
            <stop stop-color="rgba(203, 200, 204, 1)" offset="0.77"></stop>
        </linearGradient>
        <style>
            @keyframes float1 {
                    0%{transform: translate(0, 0)}
                    50%{transform: translate(-10px, 0)}
                    100%{transform: translate(0, 0)}
                }

                .triangle-float1 {
                    animation: float1 5s infinite;
                }

                @keyframes float2 {
                    0%{transform: translate(0, 0)}
                    50%{transform: translate(-5px, -5px)}
                    100%{transform: translate(0, 0)}
                }

                .triangle-float2 {
                    animation: float2 4s infinite;
                }

                @keyframes float3 {
                    0%{transform: translate(0, 0)}
                    50%{transform: translate(0, -10px)}
                    100%{transform: translate(0, 0)}
                }

                .triangle-float3 {
                    animation: float3 6s infinite;
                }
        </style>
    </defs>
</svg>